<svg id="Layer_1" data-name="Layer 1" xmlns="http://www.w3.org/2000/svg" xmlns:xlink="http://www.w3.org/1999/xlink" width="100" height="100" viewBox="0 0 100 100"><defs><style>.cls-1{fill:url(#radial-gradient);}.cls-2{fill:url(#radial-gradient-2);}.cls-3{fill:url(#radial-gradient-3);}.cls-4{fill:url(#radial-gradient-4);}.cls-5{fill:url(#radial-gradient-5);}.cls-6{fill:url(#radial-gradient-6);}.cls-7{fill:#cb9904;}</style><radialGradient id="radial-gradient" cx="50" cy="50" r="50" gradientUnits="userSpaceOnUse"><stop offset="0" stop-color="#131313"/><stop offset="0.26" stop-color="#4e4d4d"/><stop offset="0.51" stop-color="#1c1c1c"/><stop offset="0.76" stop-color="#404040"/><stop offset="1" stop-color="#010101"/></radialGradient><radialGradient id="radial-gradient-2" cy="50" r="44.09" xlink:href="#radial-gradient"/><radialGradient id="radial-gradient-3" cy="50" r="31.41" xlink:href="#radial-gradient"/><radialGradient id="radial-gradient-4" cy="50" r="24.9" xlink:href="#radial-gradient"/><radialGradient id="radial-gradient-5" cy="50" r="13.85" xlink:href="#radial-gradient"/><radialGradient id="radial-gradient-6" cy="50" r="7.45" xlink:href="#radial-gradient"/></defs><title>fourth_king</title><circle class="cls-1" cx="50" cy="50" r="50"/><circle class="cls-2" cx="50" cy="50" r="44.09"/><circle class="cls-3" cx="50" cy="50" r="31.41"/><circle class="cls-4" cx="50" cy="50" r="24.9"/><circle class="cls-5" cx="50" cy="50" r="13.85"/><circle class="cls-6" cx="50" cy="50" r="7.45"/><path class="cls-7" d="M297.82,379.86a41.09,41.09,0,1,1-41.09,41.08,41.14,41.14,0,0,1,41.09-41.08m0-3a44.09,44.09,0,1,0,44.09,44.08,44.09,44.09,0,0,0-44.09-44.08Z" transform="translate(-247.82 -370.94)"/></svg>