<svg id="Layer_1" data-name="Layer 1" xmlns="http://www.w3.org/2000/svg" xmlns:xlink="http://www.w3.org/1999/xlink" width="35.28mm" height="35.28mm" viewBox="0 0 100 100"><defs><style>.cls-1{fill:url(#radial-gradient);}.cls-2{fill:url(#radial-gradient-2);}.cls-3{fill:url(#radial-gradient-3);}.cls-4{fill:url(#radial-gradient-4);}.cls-5{fill:url(#radial-gradient-5);}.cls-6{fill:url(#radial-gradient-6);}.cls-7{fill:#cb9904;}</style><radialGradient id="radial-gradient" cx="319.24" cy="435.25" r="54.33" gradientTransform="translate(-243.8 -350.56) scale(0.92 0.92)" gradientUnits="userSpaceOnUse"><stop offset="0.01" stop-color="#fff"/><stop offset="0.22" stop-color="#c7b29a"/><stop offset="0.49" stop-color="#f7f5f3"/><stop offset="0.74" stop-color="#cfbda8"/><stop offset="1" stop-color="#f2efec"/></radialGradient><radialGradient id="radial-gradient-2" cx="319.24" cy="435.25" r="47.91" xlink:href="#radial-gradient"/><radialGradient id="radial-gradient-3" cx="319.24" cy="435.25" r="34.13" xlink:href="#radial-gradient"/><radialGradient id="radial-gradient-4" cx="319.24" cy="435.25" r="27.05" xlink:href="#radial-gradient"/><radialGradient id="radial-gradient-5" cx="319.24" cy="435.25" r="15.05" xlink:href="#radial-gradient"/><radialGradient id="radial-gradient-6" cx="319.24" cy="435.25" r="8.09" xlink:href="#radial-gradient"/></defs><title>third_king</title><circle class="cls-1" cx="50" cy="50" r="50"/><circle class="cls-2" cx="50" cy="50" r="44.09"/><circle class="cls-3" cx="50" cy="50" r="31.41"/><circle class="cls-4" cx="50" cy="50" r="24.9"/><circle class="cls-5" cx="50" cy="50" r="13.85"/><circle class="cls-6" cx="50" cy="50" r="7.45"/><path class="cls-7" d="M298.38,379.86a41.09,41.09,0,1,1-41.09,41.08,41.13,41.13,0,0,1,41.09-41.08m0-3a44.09,44.09,0,1,0,44.09,44.08,44.09,44.09,0,0,0-44.09-44.08Z" transform="translate(-248.38 -370.94)"/></svg>